<svg width="119" height="32" viewBox="0 0 119 32" fill="none" xmlns="http://www.w3.org/2000/svg">
<g clip-path="url(#clip0_95_661)">
<path d="M43.4111 13.6582H49.5559V27.1136H57.7837V31.877H43.4092V13.6582H43.4111Z" fill="white"/>
<path d="M77.327 31.877L77.2749 23.5743L71.9884 31.877L66.6498 23.8616V31.877H61.0508V13.6582H66.102L72.0385 23.3662L77.8188 13.6582H82.87L82.9221 31.877H77.327Z" fill="white"/>
<path d="M104.803 22.7686C104.803 27.7999 100.722 31.8789 95.6882 31.8789C90.6543 31.8789 86.5732 27.7999 86.5732 22.7686C86.5732 17.7372 90.6543 13.6582 95.6882 13.6582C100.722 13.6582 104.803 17.7372 104.803 22.7686ZM95.6882 18.8804C93.5397 18.8804 91.8 20.6211 91.8 22.7666C91.8 24.9122 93.5416 26.6529 95.6882 26.6529C97.8368 26.6529 99.5764 24.9122 99.5764 22.7666C99.5764 20.6211 97.8368 18.8804 95.6882 18.8804Z" fill="white"/>
<path d="M118.84 0.123047V20.3177C118.84 21.3067 118.453 22.257 117.758 22.9645L109.087 31.8088V9.86762L118.84 0.123047Z" fill="#0378B6"/>
<path d="M118.84 0.123047H98.0604C97.071 0.123047 96.1201 0.510514 95.4123 1.20449L86.5635 9.87148H109.089L118.84 0.123047Z" fill="#61EEFF"/>
<path d="M92.7953 0.123047H10.0623L0.108398 9.86955H82.8433L92.7953 0.123047Z" fill="#61EEFF"/>
<path d="M21.567 13.6582L13.86 31.877H7.81936L0.112305 13.6582H6.72578L10.8628 24.303L15.0076 13.6582H21.567Z" fill="white"/>
<path d="M18.9824 31.877L26.6895 13.6582H32.7301L40.4372 31.877H33.8237L29.6867 21.2322L25.5419 31.877H18.9824Z" fill="white"/>
</g>
<defs>
<clipPath id="clip0_95_661">
<rect width="119" height="32" fill="white"/>
</clipPath>
</defs>
</svg>
